<?xml version="1.0" encoding="iso-8859-1"?>
<!-- Generator: Adobe Illustrator 18.0.0, SVG Export Plug-In . SVG Version: 6.00 Build 0)  -->
<!DOCTYPE svg PUBLIC "-//W3C//DTD SVG 1.1//EN" "http://www.w3.org/Graphics/SVG/1.1/DTD/svg11.dtd">
<svg version="1.1" id="Capa_1" xmlns="http://www.w3.org/2000/svg" xmlns:xlink="http://www.w3.org/1999/xlink" x="0px" y="0px"
	 viewBox="0 0 499.356 499.356" style="enable-background:new 0 0 499.356 499.356;" xml:space="preserve">
<g>
	<path d="M87.477,110.823c24.681,0,44.68-20,44.68-44.68c0-24.681-19.999-44.681-44.68-44.681c-24.682,0-44.682,20-44.682,44.681
		C42.796,90.823,62.796,110.823,87.477,110.823z"/>
	<path d="M233.383,169.468c-5.894-7.434-16.698-8.685-24.135-2.791l-42.461,33.658l-28.906-70.267
		c-2.745-6.671-9.206-10.679-16.002-10.636c-0.077-0.004-0.154-0.012-0.232-0.012H53.3c-11.039,0-19.99,8.95-19.99,19.991v102.257
		L1.261,341.793c-5.389,16.839,7.172,34.05,24.854,34.05h7.195v79.444c0,12.759,10.572,23.049,23.434,22.592
		c12.25-0.436,21.781-10.876,21.781-23.134v-78.902h17.898v79.444c0,12.758,10.571,23.049,23.434,22.592
		c12.25-0.435,21.781-10.876,21.781-23.135v-78.901h7.197c17.679,0,30.242-17.211,24.854-34.05l-32.051-100.126v-12.156l2.055,4.994
		c2.053,4.99,6.331,8.726,11.552,10.087c1.432,0.374,2.888,0.557,4.335,0.557c3.833,0,7.604-1.284,10.673-3.717l60.34-47.83
		C238.027,187.708,239.276,176.903,233.383,169.468z M142.292,316.051c0.202,0,0.399-0.021,0.599-0.03l10.345,32.318
		c0.592,1.849-0.037,3.269-0.668,4.134c-0.633,0.865-1.793,1.897-3.732,1.897h-1.504c-0.707-6.347-6.083-11.283-12.619-11.283
		c-6.537,0-11.914,4.936-12.621,11.283H48.455c-1.578-1.163-3.521-1.858-5.631-1.858c-2.11,0-4.054,0.696-5.631,1.858H26.114
		c-1.941,0-3.101-1.031-3.732-1.896c-0.632-0.866-1.261-2.286-0.669-4.134l8.948-27.955c1.731,0.918,3.703,1.443,5.799,1.443
		c6.844,0,12.392-5.548,12.392-12.393c0-6.289-4.689-11.472-10.758-12.273l10.889-34.02h66.341c0,0.012-0.003,0.022-0.003,0.034
		c0,2.716,2.203,4.918,4.918,4.918c2.716,0,4.918-2.202,4.918-4.918c0-0.012-0.003-0.022-0.003-0.034h0.81l9.811,30.649
		c-3.347,2.15-5.571,5.897-5.571,10.17C130.204,310.638,135.616,316.051,142.292,316.051z"/>
	<circle cx="52.336" cy="278.133" r="3.483"/>
	<circle cx="96.536" cy="300.402" r="18.786"/>
	<circle cx="71.581" cy="328.772" r="6.944"/>
	<path d="M376.049,190.815c22.986,0,41.612-18.627,41.612-41.613c0-22.986-18.626-41.613-41.612-41.613
		c-22.987,0-41.614,18.627-41.614,41.613C334.435,172.187,353.061,190.815,376.049,190.815z"/>
	<path d="M478.356,434.597h-52.334l0.469-139.473l28.811,70.033c2.543,6.18,8.51,9.917,14.803,9.917c2.028,0,4.09-0.388,6.081-1.207
		c8.173-3.362,12.072-12.712,8.71-20.884l-59.341-144.245c-2.74-6.66-9.429-9.906-16.273-9.846
		c-0.468,0.004-65.875-0.005-66.28-0.01c-6.81-0.076-13.458,3.224-16.187,9.855l-29.372,71.398l-40.852-12.549
		c-8.452-2.598-17.398,2.15-19.993,10.596c-2.595,8.447,2.149,17.398,10.597,19.993l54.797,16.833
		c1.561,0.479,3.143,0.708,4.7,0.708c6.331,0,12.272-3.781,14.795-9.915l4.113-9.997v48.997l-48.117,14.888
		c-5.835,1.805-10.595,6.061-13.038,11.658c-2.444,5.597-2.33,11.98,0.311,17.487l36.388,75.846
		c3.611,7.527,11.122,11.921,18.948,11.921c3.046,0,6.14-0.665,9.069-2.071c10.456-5.017,14.866-17.561,9.85-28.017l-25.857-53.897
		l49.52-15.322c0.341-0.106,0.663-0.243,0.995-0.364h20.354v78.666c0,11.598,9.402,21,21,21h73.334c11.598,0,21-9.402,21-21
		C499.356,443.999,489.954,434.597,478.356,434.597z M393.485,289.326l-12.26,12.258c-2.859,2.859-7.495,2.859-10.355,0
		l-12.26-12.258c-1.847-1.847-2.57-4.539-1.898-7.063l11.756-44.141c-3.447-0.062-6.225-2.871-6.225-6.333v-14.932
		c0-3.501,2.839-6.338,6.339-6.338h14.932c3.501,0,6.339,2.838,6.339,6.338v14.932c0,3.462-2.777,6.271-6.225,6.333l11.756,44.141
		C396.056,284.787,395.333,287.478,393.485,289.326z"/>
</g>
<g>
</g>
<g>
</g>
<g>
</g>
<g>
</g>
<g>
</g>
<g>
</g>
<g>
</g>
<g>
</g>
<g>
</g>
<g>
</g>
<g>
</g>
<g>
</g>
<g>
</g>
<g>
</g>
<g>
</g>
</svg>
