<?xml version="1.0" encoding="iso-8859-1"?>
<!-- Generator: Adobe Illustrator 18.0.0, SVG Export Plug-In . SVG Version: 6.00 Build 0)  -->
<!DOCTYPE svg PUBLIC "-//W3C//DTD SVG 1.1//EN" "http://www.w3.org/Graphics/SVG/1.1/DTD/svg11.dtd">
<svg version="1.1" id="Capa_1" xmlns="http://www.w3.org/2000/svg" xmlns:xlink="http://www.w3.org/1999/xlink" x="0px" y="0px"
	 viewBox="0 0 367.249 367.249" style="enable-background:new 0 0 367.249 367.249;" xml:space="preserve">
<g>
	<g>
		<path d="M347.108,283.987c0-1.389-0.385-2.688-1.043-3.803c-0.014-0.023-0.022-0.049-0.036-0.07l-38.879-64.461v-80.98
			c0-4.143-3.357-7.5-7.5-7.5H205.4c55.149-35.369,57.165-70.986,55.126-85.576c-2.842-20.322-17.447-36.67-36.346-40.68
			c-15.025-3.189-29.611,2.043-40.551,14.121c-10.941-12.08-25.531-17.309-40.561-14.121c-18.898,4.01-33.504,20.357-36.346,40.68
			c-2.039,14.592-0.021,50.207,55.129,85.576H67.597c-4.143,0-7.5,3.357-7.5,7.5v80.98l-38.879,64.461
			c-0.019,0.031-0.031,0.064-0.05,0.096c-0.648,1.111-1.027,2.398-1.027,3.777v48.457v27.305c0,4.143,3.357,7.5,7.5,7.5h47.215
			c4.143,0,7.5-3.357,7.5-7.5v-19.805h202.537v19.805c0,4.143,3.357,7.5,7.5,7.5h47.215c4.143,0,7.5-3.357,7.5-7.5V283.987z
			 M272.365,196.782c0,7.42-7.313,13.457-16.302,13.457h-39.121c-8.989,0-16.302-6.037-16.302-13.457V184.61
			c0-7.42,7.313-13.457,16.302-13.457h39.121c8.989,0,16.302,6.037,16.302,13.457V196.782z M166.609,196.782
			c0,7.42-7.313,13.457-16.302,13.457h-39.121c-8.989,0-16.302-6.037-16.302-13.457V184.61c0-7.42,7.313-13.457,16.302-13.457
			h39.121c8.989,0,16.302,6.037,16.302,13.457V196.782z M295.415,225.239l30.909,51.248H40.921l30.91-51.248H295.415z
			 M121.581,43.673c1.969-14.092,11.855-25.379,24.602-28.082c11.908-2.529,23.232,3.248,31.076,15.84
			c2.189,3.518,6.816,4.592,10.33,2.402c0.951-0.594,1.719-1.367,2.295-2.246c0.037-0.053,0.074-0.102,0.107-0.156
			c7.844-12.592,19.174-18.365,31.076-15.84c12.746,2.703,22.633,13.99,24.602,28.082c1.773,12.686-0.869,45.438-62.041,78.973
			C122.456,89.11,119.807,56.36,121.581,43.673z M75.097,142.173H292.15v68.066h-8.525c2.379-4.01,3.74-8.59,3.74-13.457V184.61
			c0-15.691-14.042-28.457-31.302-28.457h-39.121c-17.26,0-31.302,12.766-31.302,28.457v12.172c0,4.867,1.359,9.447,3.739,13.457
			h-11.514c2.381-4.01,3.743-8.588,3.743-13.457V184.61c0-15.691-14.042-28.457-31.302-28.457h-39.121
			c-17.26,0-31.302,12.766-31.302,28.457v12.172c0,4.865,1.352,9.449,3.729,13.457h-8.517V142.173z M67.356,352.249H35.141v-12.305
			h32.215V352.249z M332.108,352.249h-32.215v-12.305h32.215V352.249z M332.108,324.944H35.141v-33.457h296.967V324.944z"/>
	</g>
</g>
<g>
</g>
<g>
</g>
<g>
</g>
<g>
</g>
<g>
</g>
<g>
</g>
<g>
</g>
<g>
</g>
<g>
</g>
<g>
</g>
<g>
</g>
<g>
</g>
<g>
</g>
<g>
</g>
<g>
</g>
</svg>
