<?xml version="1.0" encoding="iso-8859-1"?>
<!-- Generator: Adobe Illustrator 19.0.0, SVG Export Plug-In . SVG Version: 6.00 Build 0)  -->
<svg version="1.1" id="Layer_1" xmlns="http://www.w3.org/2000/svg" xmlns:xlink="http://www.w3.org/1999/xlink" x="0px" y="0px"
	 viewBox="0 0 512 512" style="enable-background:new 0 0 512 512;" xml:space="preserve">
<g>
	<g>
		<path d="M440.138,52.532c-5.846-28.798-31.417-49.7-60.802-49.7s-54.956,20.902-60.802,49.7l-14.444,71.157
			c5.227-6.23,10.891-10.603,16.625-13.613l11.133-54.842c4.566-22.493,24.538-38.818,47.49-38.818s42.923,16.326,47.489,38.818
			l11.133,54.842c5.734,3.01,11.399,7.383,16.625,13.613L440.138,52.532z"/>
	</g>
</g>
<g>
	<g>
		<path d="M361.259,117.056c2.144,8.211,9.544,13.989,18.078,13.989c8.681,0,15.979-5.955,18.078-13.989v-0.001
			C385.811,117.055,372.093,117.055,361.259,117.056z"/>
	</g>
</g>
<g>
	<g>
		<path d="M503.642,284.516c-51.038-139.532-46.402-133.113-53.786-145.225c-9.007-14.773-21.38-22.237-36.939-22.237h-4.469v0.001
			c-2.264,14.029-14.453,24.779-29.111,24.779c-14.572,0-26.837-10.689-29.111-24.779h-4.47c-15.455,0-27.761,7.369-36.753,21.942
			c-7.461,12.09-2.493,4.819-53.974,145.52c-3.745,10.245,1.737,21.273,11.55,24.861c10.051,3.675,21.184-1.493,24.861-11.55
			c5.831-15.94,22.567-61.952,35.072-97.135l4.403,11.483c-16.632,27.486-27.561,57.527-32.512,89.406
			c-0.805,5.184-21.212,136.579-22.315,143.685c-2.744,17.664,10.962,33.577,28.748,33.577h22.957v9.895
			c0,12.846,10.414,23.26,23.26,23.26c12.846,0,23.26-10.414,23.26-23.26v-9.895h10.043v9.895c0,12.846,10.414,23.26,23.26,23.26
			c12.846,0,23.26-10.414,23.26-23.26v-9.895h22.956c17.858,0,31.487-15.946,28.748-33.577
			c-1.097-7.058-21.508-138.482-22.316-143.685c-4.952-31.879-15.88-61.92-32.512-89.406l4.403-11.484
			c10.656,29.98,26.445,73.545,35.073,97.136c3.679,10.061,14.814,15.222,24.861,11.55
			C502.036,305.742,507.351,294.661,503.642,284.516z M338.591,180.063c1.064-3.092,2.801-5.873,5.031-8.17
			c3.994-4.113,9.573-6.679,15.759-6.679c6.184,0,11.758,2.564,15.746,6.679c1.725,1.779,3.158,3.845,4.209,6.125
			c1.05-2.28,2.484-4.345,4.209-6.125c3.988-4.115,9.562-6.679,15.746-6.679c6.187,0,11.766,2.566,15.759,6.679
			c2.231,2.297,3.967,5.078,5.031,8.17c1.196,3.475,1.121,7.244-0.207,10.67l-6.852,17.677h-67.372l-6.851-17.679
			C337.472,187.312,337.397,183.532,338.591,180.063z M445.34,303.901l22.316,143.685c1.32,8.504-5.254,16.152-13.821,16.152
			c-34.562,0-114.419,0-148.998,0c-8.517,0-15.143-7.64-13.821-16.152l22.314-143.685c4.405-28.362,14.066-55.616,28.438-80.385
			h75.134C431.274,248.286,440.935,275.539,445.34,303.901z"/>
	</g>
</g>
<g>
	<g>
		<path d="M379.336,23.903c-22.187,0-40.174,17.986-40.174,40.174c0,22.257,18.092,40.173,40.174,40.173
			c22.068,0,40.174-17.905,40.174-40.173C419.509,41.89,401.523,23.903,379.336,23.903z"/>
	</g>
</g>
<g>
	<g>
		<circle cx="110.617" cy="42.143" r="42.143"/>
	</g>
</g>
<g>
	<g>
		<path d="M213.318,145.59c-0.133-26.399-21.719-47.876-48.117-47.876h-17.954c-4.181,11.169-31.131,83.162-36.626,97.84
			c-5.494-14.676-32.446-86.673-36.626-97.84H56.042c-26.4,0-47.984,21.478-48.117,47.877L7.173,294.969
			c-0.057,11.229,9.002,20.378,20.231,20.435c0.035,0,0.07,0,0.104,0c11.182,0,20.274-9.036,20.331-20.231l0.751-149.38
			c0.012-2.256,1.846-4.077,4.101-4.07c2.255,0.007,4.079,1.836,4.079,4.091c-0.006,202.263-0.216,19.047-0.216,341.785
			c0,13.475,10.924,24.4,24.4,24.4c13.475,0,24.4-10.924,24.4-24.4V292.571h10.535V487.6c0,13.475,10.924,24.4,24.4,24.4
			c13.475,0,24.4-10.924,24.4-24.4c0-317.693-0.212-145.664-0.216-341.785c0-2.255,1.825-4.085,4.079-4.091
			c2.255-0.007,4.09,1.814,4.101,4.07l0.751,149.38c0.057,11.195,9.148,20.231,20.331,20.231c0.034,0,0.07,0,0.104,0
			c11.229-0.057,20.286-9.206,20.231-20.435L213.318,145.59z M152.781,165.394h-18.873v-8.87h18.873V165.394z"/>
	</g>
</g>
<g>
	<g>
		<path d="M129.448,87.971c-0.899-0.531-2.011-0.549-2.927-0.045l-15.9,8.742l-15.9-8.742c-0.915-0.503-2.028-0.486-2.927,0.045
			s-1.45,1.498-1.45,2.542v6.864v13.049c0,1.044,0.551,2.011,1.45,2.542c0.899,0.531,2.011,0.549,2.927,0.045l15.9-8.742l15.9,8.742
			c0.915,0.505,2.028,0.487,2.927-0.044s1.45-1.498,1.45-2.542v-13.05v-6.864C130.898,89.469,130.347,88.502,129.448,87.971z"/>
	</g>
</g>
<g>
	<g>
		<circle cx="110.617" cy="126.029" r="5.544"/>
	</g>
</g>
<g>
	<g>
		<circle cx="110.617" cy="152.649" r="5.544"/>
	</g>
</g>
<g>
</g>
<g>
</g>
<g>
</g>
<g>
</g>
<g>
</g>
<g>
</g>
<g>
</g>
<g>
</g>
<g>
</g>
<g>
</g>
<g>
</g>
<g>
</g>
<g>
</g>
<g>
</g>
<g>
</g>
</svg>
